<svg xmlns="http://www.w3.org/2000/svg" viewBox="0 0 1313.21 141.85"><path fill="#fff" d="M.21.1h142.44v141.56H.21z"/><path d="M.47 65.51c1.25 0 2.5.08 3.74 0a33.67 33.67 0 006.87-1.41 51.91 51.91 0 0011.27-5A33.2 33.2 0 0031 51.78c2.28-2.65 4.49-5.36 6.76-8a58.28 58.28 0 018.6-8.24A34.2 34.2 0 0163 28.71c1.94-.27 3.91-.4 5.86-.52a58.29 58.29 0 018.46.22 42.17 42.17 0 017.33 1.31 41.1 41.1 0 0117.15 9.6 152.25 152.25 0 0111.82 12.54 48.91 48.91 0 006.27 6.14 36.26 36.26 0 0016 7.72 32.51 32.51 0 006.74.32c0-.55.07-.92.07-1.3 0-1.62.05-3.25 0-4.88V1.21c0-.37-.07-.74-.11-1.14a7.76 7.76 0 00-1.76-.07H1.07C.8 0 .53.07.21.1.17.52.12.84.11 1.17-.1 10.93 0 63.87.24 65.38c.08.04.15.13.23.13zm142.01 15.17h-1.09a34.09 34.09 0 00-7.4.87 40.23 40.23 0 00-10.36 3.78 41.94 41.94 0 00-11.41 9.33c-2.08 2.32-4.1 4.69-6.11 7.07A52.58 52.58 0 0192.79 113a34.72 34.72 0 01-12.9 4.64 37.32 37.32 0 01-5.28.52c-.86 0-1.71.17-2.57.2a46.79 46.79 0 01-8-.52 37 37 0 01-11.13-3.26 49 49 0 01-13.11-9.21c-2.19-2.15-4.34-4.33-6.35-6.66-1.62-1.89-3.31-3.72-5-5.53-1.35-1.42-2.72-2.85-4.2-4.13a41.65 41.65 0 00-11.81-7A19.11 19.11 0 007 80.68c-1.53-.14-3-.31-4.58-.44a8.54 8.54 0 00-1.43 0 4.21 4.21 0 00-.81.21v61.29a10.54 10.54 0 001.09.11h140.5a4.84 4.84 0 00.85-.16c0-.44.07-.82.07-1.19V82.13a2.11 2.11 0 00-.21-1.45z" fill="#fa7832"/><path d="M1.58 75.21c1.1 0 2.22-.07 3.31 0a41.8 41.8 0 018.28 1.68 43.05 43.05 0 0119.07 12.42c1.93 2.13 3.74 4.37 5.58 6.58a56.67 56.67 0 008.66 8.58 41.55 41.55 0 0011.22 6.32 39 39 0 0011.2 2.33 41.64 41.64 0 004.74 0 36.14 36.14 0 008.87-1.57 38.36 38.36 0 0014.13-8.34c2.87-2.55 5.5-5.34 8.11-8.14a111.88 111.88 0 018.43-8.44 49.21 49.21 0 019.31-6.44 41.68 41.68 0 0111.34-4 34.27 34.27 0 017.57-.72c.4 0 .86.16 1.3-.24 0-1.32.06-2.69 0-4.21-.5 0-.83-.08-1.16-.07a34.12 34.12 0 01-7.68-.86 42.82 42.82 0 01-20.65-11c-3.08-2.9-5.73-6.18-8.52-9.34a67 67 0 00-8.21-8 38.34 38.34 0 00-22.54-8.31 40.76 40.76 0 00-6.89.17 37.43 37.43 0 00-7.55 1.66A37.92 37.92 0 0046 43.65c-2.71 2.51-5.24 5.19-7.74 7.91-2 2.15-4 4.31-6 6.41a40.16 40.16 0 01-12.1 8.43A46.28 46.28 0 019.11 70a33.12 33.12 0 01-6.11.69A9.26 9.26 0 00.21 71a10.64 10.64 0 00.14 4.12c.39.05.81.09 1.23.09zm40.06-13.06a7.12 7.12 0 01.94-.1h17.34a2.14 2.14 0 00.28-1.6V43.79a3.46 3.46 0 01.2-.7h22.4a2.24 2.24 0 01.3 1.63v16.97c.45.48.91.36 1.32.37h17.6a4.49 4.49 0 01.16.87v20.82a4.87 4.87 0 01-.08.68 2.41 2.41 0 01-1.57.22H83.3a2.68 2.68 0 00-.22 1.6v16.52a2.85 2.85 0 01-.15.52c-1.36.18-21.5.16-22.64 0a3.7 3.7 0 01-.11-1.52V86.4c0-.52 0-1-.05-1.59a3.58 3.58 0 00-1.6-.16H43.17a2.84 2.84 0 01-1.53-.17c-.19-1.19-.2-21.01 0-22.33z" fill="#fa7832"/><path d="M48.89 77.46a4.15 4.15 0 001.5.1h12.08a2.42 2.42 0 011.44.18c.31 1-.11 2.07.27 3.11 1 .28 2.11-.07 3.18.24v13.67c0 .46-.14 1 .21 1.37a1.35 1.35 0 00.29.09h7.54A2.33 2.33 0 0076 96V82.5c0-.46 0-.93.07-1.43 1.11-.25 2.18.06 3.23-.23.34-1 0-2.12.29-3.16a4.06 4.06 0 011.55-.11h12.37A2.16 2.16 0 0095 77.3v-7.93a5.41 5.41 0 00-1.85-.19H80.78c-.42 0-.86.12-1.23-.18-.31-1 .2-2.2-.4-3.31h-2.14a7.6 7.6 0 01-1-.17V51.78a2 2 0 00-.24-1.44 29.43 29.43 0 00-4.1-.07 22 22 0 00-4.2.13c-.08 1.3 0 2.54 0 3.77v7.62a27.47 27.47 0 01-.1 3.73c-1 .35-2.13-.06-3.17.3-.3 1.07.06 2.2-.27 3.32H50.48a3.82 3.82 0 00-1.7.19 3.47 3.47 0 00-.07.59v7.18c.03.12.11.21.18.36zm15.2-5.67a4.87 4.87 0 01.8-.19h4.94a4.63 4.63 0 00.16-.87V66a10.47 10.47 0 013.25-.16 7 7 0 01.15.83v4.78a5 5 0 00.89.16h3.87c.37 0 .74.07 1.16.11a11.57 11.57 0 01.06 3.11 5.37 5.37 0 01-.82.16h-3.86c-.37 0-.74 0-1.18.07-.24 2 0 3.86-.16 5.71a7 7 0 01-3.26 0c-.25-1.85.06-3.76-.19-5.75-2-.15-3.86 0-5.75-.12a10.61 10.61 0 01-.06-3.11z" fill="#fa7832"/><path d="M246.06 61.42h-66.93a6.16 6.16 0 01-.87-.18 36.85 36.85 0 01.09-4.34 5.92 5.92 0 011.9-.13h55.42a1.23 1.23 0 001.27-.72c1.05-1.72 2.13-3.42 3.18-5.14a3.21 3.21 0 00.22-.73h-61.27a4.3 4.3 0 01-.66-.12 17.35 17.35 0 01.05-5h58a31.07 31.07 0 003-6.55H184c-1.86 0-3.72.08-5.64-.08a9.88 9.88 0 01-.09-2.35 5.46 5.46 0 01.22-2.45h58.26a4.1 4.1 0 00.39-.51c1.06-2.1 2.12-4.19 3.16-6.29a1.94 1.94 0 000-.63h-78.18a6.29 6.29 0 00-.88.2v34.16a7 7 0 01-.18.86h-4.52a7.13 7.13 0 00-2.15.14 22.09 22.09 0 00-.1 3.89 15 15 0 00.16 3.89l1.47.06c1.49 0 3 0 4.46.08a4.49 4.49 0 01.87.16v20.61c0 .46-.14 1 .3 1.45h16a4.2 4.2 0 00.63-.12c.11-1.22.05-2.41.06-3.59s0-2.49 0-3.74V73.33c0-1.19-.06-2.47.06-3.76a7.25 7.25 0 01.78-.1h7.34a1.84 1.84 0 011.09.28c.32.22.65.41 1 .61l19.67 12.22 17.59 10.92 4 2.45a159.51 159.51 0 0014.65-6.56c-1.33-.9-2.7-1.66-4.06-2.46s-2.65-1.55-3.95-2.35-2.8-1.58-4.14-2.58c.32-.27.55-.49.81-.68l6.52-4.72a7.67 7.67 0 00.64-.64c-2.68-2.16-5.36-4.15-8-6.25l-9.45 6.67c-.31-.15-.56-.27-.81-.41l-3.59-2.12-6.42-3.84c-.18-.11-.46-.18-.32-.58h31.45a4.71 4.71 0 001.8-.15c.89-2.38 1.75-4.81 2.61-7.25a2.18 2.18 0 000-.64zm315.17 21.25a32.7 32.7 0 01-6.94-3.77c1.63-1.34 3.22-2.57 4.72-3.9a56.63 56.63 0 008.48-9.74 32.39 32.39 0 003.51-5.92 5.16 5.16 0 00.48-2.22v-4.16c0-.28-.05-.55-.08-.92-.59 0-1.11-.06-1.63-.06h-14.41a6.31 6.31 0 01-1.87-.15 3.83 3.83 0 01-.1-.59V42.9a3.27 3.27 0 01.18-.74h17.88a3.7 3.7 0 001.65-.16c.55-2.17 1.1-4.38 1.67-6.68-.63 0-1.15-.1-1.67-.1h-18.14a2 2 0 01-1.58-.37v-8.96a11.27 11.27 0 00-.1-1.13 4.81 4.81 0 00-.64-.08h-12.82a3.77 3.77 0 00-.72.14c-.1 1.21 0 2.36-.05 3.5s0 2.21 0 3.31a16.71 16.71 0 01-.13 3.45 10.57 10.57 0 01-2.16.15h-14.25a5 5 0 00-.89.16c0 2.16-.06 4.26 0 6.36 0 .12.13.24.25.43h15.55a2.67 2.67 0 011.53.16 1.91 1.91 0 01.09.44v8.47a3.27 3.27 0 01-.18.74h-14.59c-.46 0-1-.14-1.37.19a37.15 37.15 0 00.1 6.67c1.79.06 3.61 0 5.42 0h26.91c1.78 0 3.62-.06 5.56.06-.16.43-.24.74-.38 1a29.08 29.08 0 01-3.41 5.31 38.17 38.17 0 01-9.6 8.36 10.12 10.12 0 01-.93.45c-1-.78-1.91-1.51-2.81-2.29s-1.56-1.42-2.32-2.15a83.73 83.73 0 01-7.84-8.78c-.24-.3-.51-.56-.8-.89-2.77.82-5.51 1.59-8.29 2.52a8 8 0 001.08 1.62c.34.46.69.91 1 1.36s.77 1 1.16 1.46.73.89 1.11 1.33l1.22 1.41 1.18 1.25c.44.45.87.9 1.31 1.34l1.43 1.37c.41.41.81.82 1.24 1.21s.92.83 1.4 1.24.89.72 1.32 1.1a6.29 6.29 0 011.38 1.27c-.24.15-.39.26-.55.34-1.26.59-2.51 1.2-3.78 1.77a94.72 94.72 0 01-22.83 7.13 3 3 0 00-.68.2c-.2.08-.51 0-.54.45 1.83 2.11 3.51 4.43 5.41 6.51a5.27 5.27 0 00.81 0 77.59 77.59 0 0011.8-3 103.73 103.73 0 0016.76-7.54c.29-.16.59-.29.93-.45a75.48 75.48 0 0024.76 11l4.84-6.81a1.18 1.18 0 00.09-.41c-2.56-.7-5.1-1.36-7.61-2.11a59.82 59.82 0 01-7.52-2.81z" fill="#075766"/><path d="M512.27 66.44c1.14-.37 2.27-.77 3.39-1.18s2.12-.83 3.23-1.27v-6.24c0-.28 0-.57-.06-.85a.28.28 0 00-.07-.13s-.07 0-.25-.11a70.79 70.79 0 01-9.51 3 3.18 3.18 0 01-.17-.74V47.71a4.34 4.34 0 01.16-.74c.53 0 1-.05 1.47-.05h5.47a10 10 0 001-.1c.35-1.14.74-2.22 1-3.33a12.83 12.83 0 00.84-3.26 2.65 2.65 0 00-1.47-.2H510c-.36 0-.78.12-1.14-.34V26.15c0-.45.15-1-.24-1.33a1.41 1.41 0 00-.3-.07h-13a2.73 2.73 0 00-.6.15v13.54a2.14 2.14 0 01-.28 1.6h-8.29a41.25 41.25 0 00-4.27.09v3.43a18.71 18.71 0 00.09 3.33h10.95a3.12 3.12 0 011.66.21c.19 1.21.19 13.27 0 14.57a6.6 6.6 0 01-.89.33c-1.5.29-3 .59-4.51.82-2.4.36-4.8.8-7.23 1a4.42 4.42 0 00-1.07.34c.38 1.37.71 2.67 1.12 3.94a35.22 35.22 0 001.26 4 17.14 17.14 0 003.82-.64c1.23-.21 2.44-.49 3.65-.76l3.77-.83a3.23 3.23 0 01.22 1.76v21.56a3.15 3.15 0 00.16 1.59c2.35-.37 4.62-.91 6.91-1.38s4.66-.89 7-1.54V69a3.72 3.72 0 01.14-1.58c1.15-.32 2.25-.63 3.34-.98zM648.18 48.3h25.62c.47 0 .94 0 1.48-.09.67-2.13 1.4-4.19 1.91-6.33 0-.11-.08-.26-.15-.48h-38.97a1.52 1.52 0 01-.45-.18c.67-1.31 1.47-2.49 2.19-3.72s1.54-2.54 2.28-3.82a35 35 0 002.15-3.74c-1.39-.88-2.86-1.47-4.26-2.18s-2.74-1.38-4.12-2a34.56 34.56 0 00-4.31-2c-.23.32-.44.58-.61.86q-4.38 7.26-8.74 14.52c-.46.77-1 1.54-1.43 2.33h-27.7a4.44 4.44 0 00-.76.18 35.75 35.75 0 00.07 6.69h23.26c.26 0 .59-.09.76.31-.07.13-.14.31-.24.47l-14 23.27q-4.84 8.06-9.68 16.13a8.76 8.76 0 00-.43.95c4.21 2.15 8.38 4.19 12.57 6.19a4.55 4.55 0 001.05-1.43q3.78-6.27 7.54-12.56l14.58-24.25c1.63-2.71 3.27-5.41 4.87-8.14a1.7 1.7 0 011.85-1 5.77 5.77 0 00.72 0z" fill="#075766"/><path d="M665.91 74.27c-2.34-2.66-4.69-5.31-7-8l-6.82-7.77q-3.4-3.89-6.83-7.76c-.28-.31-.61-.57-.9-.84-1.9 1.31-8.62 6.69-9.38 7.53l2.54 2.85c1.55 1.76 3.08 3.54 4.63 5.3 1.87 2.12 3.76 4.22 5.62 6.35 1.58 1.8 3.12 3.63 4.7 5.43 2.68 3.06 5.39 6.1 8.08 9.16l6.91 7.89c.24.28.45.63 1 .61l3-2.35c1.05-.83 2.13-1.64 3.14-2.51a18.53 18.53 0 003-2.54c-.39-.49-.72-1-1.1-1.38q-5.33-5.98-10.59-11.97zM787.6 56a4.78 4.78 0 00-.19-.89h-4.16a5.14 5.14 0 01-2-.17 17.35 17.35 0 010-3.3c0-1.43.18-2.86.23-4.29.06-1.77 0-3.53.16-5.31.25-2.37.07-4.77.26-7.16.22-2.66 0-5.35.32-8a4.73 4.73 0 00-.1-.93 3 3 0 00-1.62-.19h-21.97c-.42 0-.87-.12-1.23.19a21.54 21.54 0 00.1 5.9h9.02a9.32 9.32 0 011 .12 16.51 16.51 0 010 3.45 2.26 2.26 0 01-1.46.22h-6.33a9.58 9.58 0 00-1.09.11 18.15 18.15 0 00.08 5.26l4.27.09a17.06 17.06 0 014.28.12 12 12 0 01-.2 3.74c-.56 0-1 .05-1.51.05h-6a7.56 7.56 0 00-1 .16v2.66a7.1 7.1 0 00.19 2.61h5.34a26.3 26.3 0 012.67 0 10.32 10.32 0 01-.07 4.52h-50.17c-.32 0-.54-.1-.79-.14a17.24 17.24 0 010-4.4h7.87a10.88 10.88 0 001.12-.11 6.56 6.56 0 00.14-2.63c-.08-.87.33-1.8-.27-2.72h-6.17a16.9 16.9 0 01-3-.1 8.67 8.67 0 01-.16-3.76c.46 0 .88-.11 1.3-.11h7.34c.28 0 .55 0 .85-.08a3.19 3.19 0 00.14-.61v-3.88a3.21 3.21 0 00-.13-.62 2.36 2.36 0 00-1.47-.23h-6.91a2.32 2.32 0 01-1.52-.25 17.08 17.08 0 010-3.42c1.4-.14 2.72-.29 4-.41a43.91 43.91 0 006.91-1.24c.24-.06.56-.12.64-.58l-4.18-5.59a10.4 10.4 0 00-1.18.1 77.29 77.29 0 01-9.2 1.36 20.84 20.84 0 00-2.86.3 14.61 14.61 0 01-2.28.19c-.81.05-1.61.17-2.42.23-1.32.11-2.65.19-4.06.28 0 .56-.08 1-.07 1.5 0 1.91.11 3.82.17 5.74 0 1 .07 2 .11 3s.11 1.91.14 2.86l.32 10.76v.72c0 1 .11 2 .14 3a3.47 3.47 0 01-.15.82c-2.16.17-4.27-.06-6.33.13-.25 1.23-.36 11.84-.18 16.29a6.36 6.36 0 00.15.87c4.24-.68 8.46-1 12.74-1.75.09-1 0-2.06 0-3v-3a28.13 28.13 0 01.07-3.14h65.95c.38 0 .53.09.88.15v9.7c0 .36-.11.78.35 1.08 2.11-.27 4.29-.53 6.45-.85a57.86 57.86 0 006.51-.9 5.75 5.75 0 00.1-.6q.13-6.92.12-13.92z" fill="#075766"/><path d="M775.34 79.53h-23.32a30.31 30.31 0 01-3.82-.07c-.21-.42-.19-.72.21-.89s.72-.28 1.08-.41q9-3.12 18.06-6.24a6.27 6.27 0 00.82-.42 21.36 21.36 0 00-.14-5.55 5.85 5.85 0 00-1.68-.1h-53.09a6.5 6.5 0 00-.79.17 18.72 18.72 0 00.11 5.45.8.8 0 00.26.09h39.55a3.37 3.37 0 01-1.17.48c-.74.15-1.5.26-2.25.38-2.31.37-4.61.77-6.93 1.1s-4.55.57-6.82.85c-.48 0-.95.08-1.43.15a.64.64 0 00-.58.7v2.14a6.82 6.82 0 01-.22 2.17h-28.22c-.37 0-.73.08-1.07.11a25 25 0 000 5.93c.42.33.91.21 1.38.21h28.06v8.41c0 .47-.12 1 .23 1.37 1.11.15 13.48-1.41 14.67-1.73v-4c0-1.35-.06-2.67.05-4.07 1.67-.09 3.25 0 4.82 0h19.27c1.58 0 3.25.08 4.91-.08.11-.24.24-.44.32-.66.55-1.63 1.1-3.27 1.63-4.9a2.05 2.05 0 000-.62zm-25.6-40.35c-.93.68-1.83 1.41-2.78 2a15 15 0 01-3.21 1.82c-1.32-.69-2.57-1.39-3.86-2a31.2 31.2 0 00-3.95-1.86L733.7 41a12.38 12.38 0 00-2.15 1.91c1.88 1.12 3.79 2 5.69 3.22a18.38 18.38 0 01-2.68 1 52.88 52.88 0 01-6.71 1.5 2.49 2.49 0 00-.59.23 1.52 1.52 0 00.1.36q1.8 2.14 3.62 4.28a1.23 1.23 0 001.44.27 56.48 56.48 0 009.58-3.45c.38-.19.78-.34 1.19-.52 2 1.1 3.38 3 5.31 4.31 1.07-.6 2.17-1.18 3.23-1.82a15.74 15.74 0 003.17-2c-.67-.49-1.24-.92-1.82-1.33s-1.19-.81-1.77-1.24a6.56 6.56 0 01-1.73-1.35c1.09-.71 2.14-1.37 3.16-2.06a20.21 20.21 0 003.1-2.31c-.11-.17-.16-.32-.27-.39l-4.82-3.14c-.38.28-.75.53-1.01.71zm-22.94-5.61a9.11 9.11 0 00-1 .38l5 4.95a47 47 0 006-2c2-.76 4-1.61 6-2.42 2 1 3.17 2.76 4.82 4.11a39.74 39.74 0 006.16-3.49c-1.52-1.37-3.27-2.44-5-3.8a21.74 21.74 0 005.58-3.91 25.84 25.84 0 00-5.09-3.48 26 26 0 01-6.08 3.86c-2.63-1.46-5.19-2.84-7.79-4a28.67 28.67 0 00-5.31 3.63l1.11.61c1.52.8 3 1.6 4.56 2.42.18.09.3.29.51.51a15.61 15.61 0 01-3.34 1.19c-2.04.48-4.09.94-6.13 1.44zM415.16 68.84a38.87 38.87 0 01-5.28-5.06 28.9 28.9 0 01-4.27-7.12 2.66 2.66 0 01-.1-.58c2.07-.19 4.08 0 6.05-.14a41.76 41.76 0 002-6.76 7.73 7.73 0 00-1.67-.09h-6.76c-.37 0-.78.11-1.14-.34 0-3.83-.07-7.75 0-11.67 1.56-.45 3-.83 4.48-1.32s2.94-.82 4.35-1.4a76.75 76.75 0 00-3.82-9.1l-1.67.76a68.47 68.47 0 01-9.78 3.75 75.15 75.15 0 01-9.65 2.14 65.48 65.48 0 01-7.67.89 18 18 0 00-2.2.35c0 1.14 0 2.19.06 3.24s.06 2.18.1 3.29a2.73 2.73 0 00.59.2 51.4 51.4 0 008.32-.27 10.94 10.94 0 012.8 0A77.77 77.77 0 01390 49c-.54 0-1 .06-1.48.06h-10.64a1.87 1.87 0 00-1.26.19 1.8 1.8 0 00-.1.4v5.75a2 2 0 00.2.55h11.83c.36 0 .73.06 1.12.1v.66a5.22 5.22 0 01-.07.57 31.78 31.78 0 01-2.73 7.83 47.52 47.52 0 01-8.36 11.44c-.82.87-1.69 1.67-2.55 2.52a3.74 3.74 0 00.16.73q2 4.85 4 9.69c.06.14.22.25.39.42.24-.28.45-.48.62-.7.68-.93 1.37-1.85 2-2.79 2.06-2.88 4.1-5.78 6.15-8.67.2-.28.32-.68.82-.73v15.29a2.78 2.78 0 00.19 1.59c2.23-.17 4.42-.66 6.63-1s4.52-.6 6.81-1.17v-1.78c.05-6.13-.17-12.25.23-18.37 0-.17-.08-.4.3-.55 2.06 1.88 3.78 4.17 5.87 6.18 2.4-2.26 4.78-4.4 7.07-6.79-.71-.51-1.36-1.05-2.04-1.58zm53.41-2.7c-1.45.24-2.9.52-4.36.73-2.08.3-4.18.42-6.24.87a6 6 0 01-1.27 0 4.38 4.38 0 01-.16-1.77V25.46a5.91 5.91 0 00-.15-.8h-14.15c0 .89-.09 1.6-.09 2.31 0 2.3 0 4.6.05 6.89v34.2a2.47 2.47 0 01-.24 1.56c-2.92.43-5.84.87-8.77 1.29s-5.87.77-8.79 1.23c-2.12.34-4.23.71-6.37.92a5.6 5.6 0 00-1.13.36c.21 2 .4 4 .62 5.89a5.87 5.87 0 00.36 1.1l3.16-.48c1.51-.23 3-.42 4.53-.66 2.83-.46 5.64-1 8.47-1.42q3.68-.6 7.35-1.14a2.45 2.45 0 01.69.07 8.89 8.89 0 01.11 1.06v15.79c0 .36.07.73.1 1.07 1.4.17 12.88.16 14 0a2.51 2.51 0 00.19-1.53V75.65c0-.62.24-.84.87-.94 2.45-.39 4.91-.73 7.35-1.19a8 8 0 002.72-.61 42.44 42.44 0 001.64-6.76 3.37 3.37 0 00-.49-.01z" fill="#075766"/><path d="M433.22 47.61c2.9-1.24 5.7-2.46 8.56-3.79-1.74-2.42-11.1-11.31-13-12.39a44.4 44.4 0 00-7.73 3.66 83.14 83.14 0 0112.17 12.52zm-9.17 11.56c2 2.13 3.88 4.34 5.88 6.59a62.38 62.38 0 008.5-3.87 5.2 5.2 0 00-.35-.44c-3.43-3.53-6.87-7.05-10.6-10.28a7.52 7.52 0 00-2.1-1.53L418 53a.24.24 0 00-.09.11 1.82 1.82 0 00-.07.2 62.63 62.63 0 016.21 5.86zm-93.73-22.76h21.73a2 2 0 002.05-1.18c.92-1.68 1.93-3.31 2.89-5 .11-.2.19-.41.32-.68a12.23 12.23 0 00-2.51-.16h-31.51a3.73 3.73 0 01-2-.3v-4.92a4.57 4.57 0 00-.16-.84 6.17 6.17 0 00-.76-.09h-14a4.52 4.52 0 00-.84.15c-.26 2 .07 4-.2 6-.48 0-.9.08-1.32.08h-35a5.63 5.63 0 00-.93.13c-.12 1.7-.26 3.31-.33 4.93-.07 1.43 0 2.87-.06 4.31v1.14c-.06 1.05-.16 2.1-.2 3.15-.05 1.63-.07 3.25-.12 4.88 0 .91-.07 1.82-.11 2.72 0 1.2-.1 2.39-.16 3.58 0 .77-.11 1.53-.12 2.3-.07 3.87-.12 7.74-.36 11.6-.16 2.43-.11 4.88-.27 7.31-.1 1.63.07 3.27-.09 4.88-.22 2.25-.19 4.5-.21 6.74v.72c-.06 1.14-.13 2.28-.18 3.43a4.07 4.07 0 00.12.79c1.36.11 2.64.29 3.93.31 3.64.06 7.29.06 10.93.07a6.71 6.71 0 001-.15c0-.31.09-.55.1-.78 0-1.72 0-3.44.17-5.16.22-2.28 0-4.58.27-6.87.25-2.62.17-5.26.28-7.89.15-3.92.17-7.84.4-11.75.14-2.48.1-5 .28-7.45.15-2.1 0-4.2.2-6.31.2-2.86.21-5.73.31-8.59 0-.32.06-.64.09-1a2.25 2.25 0 01.49-.13h23.17a1.86 1.86 0 01.39.1 22.88 22.88 0 01-2 5.16h-9.84c-3.3 0-6.6-.19-9.9 0a5.15 5.15 0 00-.21 2.18v2a6.64 6.64 0 00.14 2.13 5 5 0 001.61.12h14.39a2.64 2.64 0 011.39.14 19.47 19.47 0 01-1.9 4.59h-14.23c-.51 0-1.05-.15-1.51.21a23.89 23.89 0 00.12 6.22 26.39 26.39 0 003.09.06h6.16a25 25 0 013.22.08 4.38 4.38 0 01-.14.72c-.38.88-.78 1.75-1.16 2.62-.83 1.91-.49 1.68-2.62 1.69h-7.63a9 9 0 00-1.06.12 24.31 24.31 0 00.11 6.42c.44 0 .91.06 1.38.06h5.47a6.89 6.89 0 01.89.12c-.59 1.77-1.34 3.36-2 5s-1.35 3.27-2 4.91-1.42 3.34-2.09 5-1.42 3.23-2 4.94a7.43 7.43 0 002.09.69q6 1.56 12.09 3.08a6.18 6.18 0 00.74.11c3.08-7.37 6-14.72 9.18-22.23 2.81 2 5.44 3.81 8.06 5.66s5.25 3.7 7.87 5.55 5.33 3.76 8 5.61 5.2 3.74 7.85 5.5l15.52-5.55a.18.18 0 00.11-.08v-.3c-1.22-1-2.63-1.87-4-2.82l-4.25-3-4.12-2.89-4.13-2.87c-1.42-1-2.86-1.93-4.25-3a39.7 39.7 0 01-4.13-3 5.51 5.51 0 011.56-.11h14.25a3.4 3.4 0 001.59-.17V60.52c0-.42-.12-.87.32-1.32h3.77a4.12 4.12 0 00.38-.69q.94-2.64 1.86-5.28c0-.11 0-.26-.06-.44-2.05-.24-4.1.07-6.21-.19 0-.54-.06-1-.06-1.48v-8.19c0-.42 0-.84-.07-1.25a4 4 0 00-1.78-.18h-23.24a4.32 4.32 0 01-1.56-.1 21.53 21.53 0 012.12-5.18zm3.28 28a1.27 1.27 0 01-.39.12H314a2 2 0 01-.47-.15 48.53 48.53 0 011.9-4.81c1.84-.2 17.13-.15 18.21 0a15.83 15.83 0 01-.04 4.8zm0-16.15a5 5 0 01.19 2.22v2.33a5.31 5.31 0 01-.76.12H319a4.14 4.14 0 01-.68-.1 23.77 23.77 0 011.84-4.54c1.09-.19 11.72-.23 13.42-.07zm-53.47 57.8a2.37 2.37 0 00-.18 1.39v6.32c0 .21.08.49-.29.55-.12-.2-.25-.4-.36-.6-1.2-2.18-2.39-4.36-3.6-6.54a3 3 0 00-.93-1.3c-1.48.1-3 0-4.57.09v15.55a10.41 10.41 0 003.22.18 2.48 2.48 0 00.72-.25v-7.92a3.41 3.41 0 01.17-.64c.28.45.47.72.63 1 1.24 2.27 2.5 4.53 3.68 6.82a1.67 1.67 0 001.71 1h2.45c1.21 0 1.28-.07 1.28-1.32v-13.5c0-.28 0-.55-.05-.81a11.59 11.59 0 00-3.88-.02zm57.75-.06a14.75 14.75 0 00-3.87 0c-.14 2.93 0 5.78-.11 9a35.29 35.29 0 01-1.87-3.21c-.54-1-1-1.94-1.6-2.89a18.7 18.7 0 00-1.76-3 43.59 43.59 0 00-4.67.1c0 .28-.07.47-.07.65v14.22a3.75 3.75 0 00.11.67 4.63 4.63 0 001.9.17 3.44 3.44 0 002-.3v-7.87c0-.2-.11-.49.3-.58.27.49.55 1 .82 1.48 1.17 2.15 2.35 4.28 3.5 6.44a1.35 1.35 0 001.36.84h3.16a3.82 3.82 0 00.88-.26v-14.68a6.39 6.39 0 00-.08-.78zm-123.65-.09h-1.87a15.73 15.73 0 00-1.92 0v8.54l-.29.11a7 7 0 01-.87-1.4c-1.18-2.14-2.34-4.29-3.52-6.43-.17-.32-.41-.61-.61-.92-1.59.12-3.12 0-4.61.11-.22 1.25-.23 14.28 0 15.53a7.63 7.63 0 003.85-.06c.07-.67 0-1.38 0-2.09v-4.26a14.07 14.07 0 01.11-2.4c1 1.64 1.77 3.11 2.56 4.55s1.59 2.94 2.41 4.45a12.9 12.9 0 002.47 0c.79-.14 1.63.29 2.34-.21.12-.94.21-13.53.11-15a4.43 4.43 0 00-.16-.52zm497.39-.04c-1.28.1-2.51 0-3.82.09-.08 1 0 2 0 2.92v2.87a17.53 17.53 0 01-.14 3.13c-1-1.66-1.75-3.14-2.55-4.58s-1.62-2.92-2.4-4.34h-5v15.51c1.15.47 2.27-.06 3.33.23.16 0 .35-.09.61-.15 0-.5.05-1 .06-1.44v-6.6c0-.22-.09-.49.32-.62.2.35.43.71.63 1.07 1.26 2.31 2.54 4.61 3.77 6.93a1.36 1.36 0 001.36.84h2.87a7.34 7.34 0 001-.15 5.94 5.94 0 00.12-.74v-14.21a3.54 3.54 0 00-.16-.76zm-161.88.04h-1.77a6.55 6.55 0 00-1.9.11v7.21a7.56 7.56 0 01-.1 1.62 8.54 8.54 0 01-.5-.72l-3.75-6.78c-.28-.49-.58-1-.87-1.44h-4a6 6 0 00-.78.14c-.17 1.6-.14 14.34 0 15.42.36.34.8.23 1.23.23h1.43a1.53 1.53 0 001.3-.41V113h.28q1.41 2.58 2.83 5.16c.52 1 1.07 1.92 1.57 2.9a1.24 1.24 0 001.27.73h3a5.36 5.36 0 001-.22c0-.45.06-.83.07-1.21v-12.92c.04-.54.19-1.05-.31-1.53zm66.95.19l-.17-.17a17.6 17.6 0 00-3.66.14v4.21a21.18 21.18 0 01-.23 4.42c-.23-.39-.35-.58-.46-.78-1.2-2.18-2.45-4.34-3.56-6.56-.56-1.13-1.19-1.7-2.53-1.48a19 19 0 01-3 0 3.68 3.68 0 00-.15.63c-.11 1.85 0 14 .1 14.92a7.12 7.12 0 003.78 0c.05-.08.13-.16.13-.24v-8l.3-.11a5.91 5.91 0 01.45.66c1.09 2 2.16 4 3.24 5.92 1.34 2.47.72 1.94 3.36 2a5.67 5.67 0 002.36-.24 1.21 1.21 0 00.11-.32v-14.93a.25.25 0 00-.07-.07zm-393.48 3.33h6.18a9.84 9.84 0 001-.1 7.78 7.78 0 000-3.33c-.38 0-.71-.07-1-.07h-7.69a5.58 5.58 0 00-5.52 4 8.37 8.37 0 00-.51 2.93v2.3a7.46 7.46 0 001.12 3.8 5.39 5.39 0 003.53 2.51 12.13 12.13 0 003.12.23h6a3.81 3.81 0 00.9-.21 2.52 2.52 0 00.12-.51v-8.18a2.36 2.36 0 00-.19-.64 42.39 42.39 0 00-7.27.07 6.39 6.39 0 00.09 3.16c1.11.15 2.17 0 3.25.14a5.17 5.17 0 01-.08 2.53h-3.31a2.7 2.7 0 01-2.68-2 7.62 7.62 0 01-.07-4.51 2.72 2.72 0 013.01-2.12zM771.83 106a2.1 2.1 0 00-.42-.09h-8.48a5.68 5.68 0 00-5.44 4.68 13.17 13.17 0 000 6.24 5.71 5.71 0 004.14 4.52 8.71 8.71 0 002.7.35c1.09 0 2.19-.06 3.29-.06h3.44a5.34 5.34 0 00.9-.17 6 6 0 00.1-.72v-7.9a3.86 3.86 0 00-.2-.76 42.45 42.45 0 00-7.2.08 12 12 0 00.11 3.14 15.18 15.18 0 002.13.09c.32 0 .63.07 1 .11a5.4 5.4 0 01-.16 2.5h-3.48a2.92 2.92 0 01-1-.26 2.8 2.8 0 01-1.53-2.13 7.84 7.84 0 010-3.82 2.89 2.89 0 013-2.46c2.06.1 4.12 0 6.18 0a7.81 7.81 0 001-.1 3.58 3.58 0 00.16-1.63c-.07-.48.16-1.07-.24-1.61zm-522.05 6.07a14.92 14.92 0 00-3.63.17 12.94 12.94 0 00.18 3.21h2.33a5.15 5.15 0 01.82.16 6 6 0 01-.1 2.39c-.4 0-.78.07-1.15.07h-2.59a1.66 1.66 0 01-.67-.22 2.92 2.92 0 01-1.66-2.37 8.38 8.38 0 010-3.42c.32-1.56 1.13-2.71 3.17-2.64s4 0 6 0c.32 0 .64-.06 1.06-.1v-1.62a6.51 6.51 0 00-.07-1.61c-.14-.09-.18-.14-.22-.14-3 0-6-.11-8.91 0a5.29 5.29 0 00-5.06 3.82 11.88 11.88 0 000 8 5.17 5.17 0 003.41 3.45 9.74 9.74 0 002.67.48c2.39.07 4.79 0 7.19 0a3.81 3.81 0 00.9-.21 70.28 70.28 0 00-.12-9.44c-1.16.01-2.33-.05-3.55.02zm247.75-.07c-.48 0-1-.07-1.44-.07h-3.59a10.3 10.3 0 01-1.57-.15 1 1 0 01-.81-.89 1.16 1.16 0 011.16-1.46h7.62c.46 0 .93 0 1.45-.06a9.27 9.27 0 00-.06-3.45h-9.72a6.58 6.58 0 00-1.71.22 3.78 3.78 0 00-2.76 2.85 6.43 6.43 0 000 3.26 3.86 3.86 0 002.57 2.87 6 6 0 002.11.36h4.46a6.14 6.14 0 01.86 0 1.15 1.15 0 011.09 1.27 1.19 1.19 0 01-1.19 1.33 8.47 8.47 0 01-1 0h-7.19c-.37 0-.74.07-1.14.11a14.7 14.7 0 000 3.39c.59.05 1.06.11 1.53.11h7.88a11.42 11.42 0 002.4-.37 3.42 3.42 0 002.05-1.49 5.48 5.48 0 00.51-5.2 3.89 3.89 0 00-3.51-2.63zm-204.62-2.6c1.91.1 3.83 0 5.75 0 .42 0 .84 0 1.32-.07a9.62 9.62 0 000-3.43h-8.56a5.56 5.56 0 00-5.6 4.26 12.47 12.47 0 000 7.21 5.48 5.48 0 004.52 4.11 13.91 13.91 0 003.28.19h1c1.1 0 2.2.09 3.29 0a5.57 5.57 0 002.21-.27v-9.21a39.08 39.08 0 00-7.26 0 7.44 7.44 0 00.07 3.15c1.06.22 2.08-.09 3.08.22a5.19 5.19 0 01-.08 2.39 3.06 3.06 0 01-.49.09h-2.58a2.79 2.79 0 01-2.94-2.4 9.16 9.16 0 010-3.83 2.91 2.91 0 012.99-2.41zm110.6 3.99a4.52 4.52 0 00-3.61-1.39h-4.17a6.86 6.86 0 01-1.43-.13 1.11 1.11 0 01-.92-1.26 1.16 1.16 0 011.11-1.11h8.18a7.83 7.83 0 001.05-.14v-1.64a4.7 4.7 0 00-.12-1.64 1.32 1.32 0 00-.34-.09h-9.34a6.93 6.93 0 00-1.57.17 3.73 3.73 0 00-2.91 2.67 6.17 6.17 0 00-.28 2.26 4.27 4.27 0 003.76 4.38 6.18 6.18 0 001.14.06h4.46a4.76 4.76 0 011 0 1.2 1.2 0 01.92 1.42 1.12 1.12 0 01-1.06 1.13 8.52 8.52 0 01-1 0h-7.33c-.37 0-.73.08-1.14.13v3.31a13 13 0 001.3.18h2.15c1 0 2-.06 3 0s2.11.11 3.16.07a9.56 9.56 0 002.25-.39 3.73 3.73 0 002.32-2 6.15 6.15 0 00.07-5 3.26 3.26 0 00-.65-.99zm-221.62-7.47a34.32 34.32 0 00-3.78.08c-.23 2.06.08 4-.2 6h-2.35a5.46 5.46 0 01-2.32-.2v-5.03a5.25 5.25 0 00-.17-.89 30.32 30.32 0 00-3.83.07c-.17 1.33-.17 14.15 0 15.47 1.07.56 2.25 0 3.36.22.18 0 .42-.17.67-.29v-3.87a4.84 4.84 0 01.19-2h2.15a20.82 20.82 0 012.35 0c.2 2 0 4 .14 6a4.13 4.13 0 00.95.2 11.71 11.71 0 002.91-.13 1.78 1.78 0 00.12-.35v-14.5a4.61 4.61 0 00-.19-.78zm189.8 12.18h-4a2.52 2.52 0 01-2.51-2.63h6.89a5.71 5.71 0 001-.17v-2.37a5 5 0 00-.21-.85h-7.76c.45-1.93 1.25-2.61 2.88-2.63h5.1a2.56 2.56 0 00.28-1.76 2.79 2.79 0 00-.23-1.73c-2.37 0-4.77-.11-7.15 0a5.41 5.41 0 00-4.92 3.81 10.58 10.58 0 00-.6 3.09 11.13 11.13 0 00.72 5.2 5.39 5.39 0 003.57 3.28 8.68 8.68 0 002.69.4h4.87a5.28 5.28 0 001-.19 9.33 9.33 0 00-.11-3.37c-.57-.05-1.04-.08-1.51-.08zm324.66-11.94a.22.22 0 00-.09-.1 11.18 11.18 0 00-3.87 0v2.83a28.89 28.89 0 010 2.95 14.56 14.56 0 01-5 0c0-.4-.06-.82-.06-1.24v-3.74a9.78 9.78 0 00-.15-1c-1.31.15-2.55-.13-3.79.2 0 .26-.08.45-.08.63v14.36a1.59 1.59 0 00.1.39 6.76 6.76 0 003.86 0v-5.11a5.53 5.53 0 01.18-.86h2.36a12.94 12.94 0 012.47.09v5.19c0 .27.08.54.12.85a12.63 12.63 0 003.69 0 3.46 3.46 0 00.18-.37 3.11 3.11 0 000-.43v-14.51a.31.31 0 00.08-.13zm-124.3 3.27h4.46a8.19 8.19 0 001-.16 13.24 13.24 0 00-.05-3.16c-.16-.08-.25-.16-.33-.16-2.25 0-4.51-.1-6.76 0a5.33 5.33 0 00-4.75 3.21 7.46 7.46 0 00-.78 3.18v2.87a6.91 6.91 0 00.24 1.7 5.82 5.82 0 003.66 4.3 8.48 8.48 0 002.38.49c1.82.07 3.64 0 5.46 0a4 4 0 001-.25v-2.51a3.58 3.58 0 00-.19-.84h-4.52a6.18 6.18 0 01-1.14 0 2.56 2.56 0 01-1.71-1 1.92 1.92 0 01-.49-1.64h6.78a6.34 6.34 0 001-.16v-2.38a3.89 3.89 0 00-.19-.85h-3.79a21.3 21.3 0 01-3.83-.11c.2-1.7 1.05-2.5 2.55-2.53zM533 118.1h-3.88a2.28 2.28 0 01-1.76-.85 1.86 1.86 0 01-.59-1.73h6.89a7.35 7.35 0 00.85-.13 8.35 8.35 0 00-.11-3.23h-6.92c-.26 0-.58.07-.76-.24.43-1.74 1.18-2.38 2.85-2.39h4.31a6.47 6.47 0 00.89-.17v-1.63a4.12 4.12 0 00-.15-1.7h-6.48a5.67 5.67 0 00-5.75 4.66 13.28 13.28 0 000 6.11c.77 3.35 2.89 4.84 6.12 5 1.76.1 3.53 0 5.3 0a7.14 7.14 0 00.87-.11 13.25 13.25 0 00.07-3.46zm133 0h-3.75a2.52 2.52 0 01-1.93-.8 1.85 1.85 0 01-.62-1.84h3.77a21.14 21.14 0 003.82-.12 6.09 6.09 0 00-.09-3.23c-1.21-.1-2.45 0-3.69 0a33.21 33.21 0 01-3.86-.08 1.68 1.68 0 010-.48 2.63 2.63 0 012.73-2.07h4.32a8.13 8.13 0 001-.15 19.45 19.45 0 000-3.14c-.2-.1-.28-.18-.36-.18-2.25 0-4.51-.09-6.76 0a5.29 5.29 0 00-4.63 3 7.73 7.73 0 00-.91 3.43v2.45a8.13 8.13 0 00.69 3.34 5.21 5.21 0 003.36 3.13 10 10 0 002.53.45c1.72.07 3.45 0 5.17 0a5.23 5.23 0 00.88-.15 9.61 9.61 0 00-.11-3.46zM322.33 106a24.15 24.15 0 00-3.05-.07 4.76 4.76 0 00-.85.15v9.97a2.19 2.19 0 01-2.21 2.32 7.94 7.94 0 01-1.29 0 2.34 2.34 0 01-2.3-2.16 3.57 3.57 0 010-.57v-5.89c0-1.14 0-2.29-.07-3.44 0-.08-.07-.17-.15-.34h-1.21a14.93 14.93 0 00-2.48.08c0 .33-.08.6-.08.88v9.29a5 5 0 003.65 5.1 9.55 9.55 0 004.53.49 8 8 0 003.62-1.28 4.38 4.38 0 002-3.75v-9.76a9.75 9.75 0 00-.11-1.02zm-53.68.9a6.33 6.33 0 00-.15-.94h-3.82c0 .63-.06 1.1-.06 1.57v8.48a2.1 2.1 0 01-1.51 2.18 4 4 0 01-2.82 0 2.06 2.06 0 01-1.44-2.1v-8.62c0-.47 0-.94-.07-1.45a6.93 6.93 0 00-1.91-.09 5.45 5.45 0 00-2 .15c0 .31-.06.59-.06.87v9.48a4.76 4.76 0 002.8 4.51 9.06 9.06 0 008.19 0 4.74 4.74 0 002.88-4.59c-.05-3.12-.02-6.28-.03-9.45zm290.11 2.53h4.61a10.09 10.09 0 001-.09 12.47 12.47 0 000-3.22 2.37 2.37 0 00-.2-.16c-2.49 0-5-.11-7.47 0a5.12 5.12 0 00-4.56 3 7.48 7.48 0 00-.88 3.44v2.6a7.6 7.6 0 001 3.7 5.17 5.17 0 002.73 2.44 8.2 8.2 0 002.94.59h5.6a5 5 0 00.91-.19 16.35 16.35 0 00-.1-3.35c-.43 0-.8-.07-1.18-.07h-4.46a2.63 2.63 0 01-2.8-2.16 7.48 7.48 0 010-4.37 2.64 2.64 0 012.86-2.16zm122.43 8.67h-4.89a2.62 2.62 0 01-2.87-2.09 7.64 7.64 0 01-.08-4.24 2.73 2.73 0 013.1-2.33h4.61a5 5 0 00.79-.11 7.1 7.1 0 000-3.29s-.08-.06-.12-.06c-2.44 0-4.89-.13-7.32 0a5.32 5.32 0 00-5 3.83 11.91 11.91 0 00-.12 7.6 5.38 5.38 0 004.66 4.12 14.76 14.76 0 002 .21h5.45a2 2 0 00.65-.24 18.7 18.7 0 000-3.26c-.48-.1-.67-.14-.86-.14zm-167.38 0c-1.35 0-2.69-.06-4 0a2.86 2.86 0 01-3-2.31 6.72 6.72 0 010-4.09 2.75 2.75 0 013-2.3c1.53.06 3.07 0 4.6 0 .27 0 .55-.06.91-.1 0-.59.05-1.1 0-1.62a7.26 7.26 0 00-.07-1.68 2.58 2.58 0 00-.48-.11h-6.47a5.8 5.8 0 00-5.68 4.2 14.88 14.88 0 00-.49 4.39 9.06 9.06 0 001 4.12 5.25 5.25 0 003.63 2.8 9.27 9.27 0 002.42.29c1.52-.06 3.05 0 4.58 0 .47 0 .94-.07 1.45-.11a15.81 15.81 0 000-3.51zM361.25 106c-.32 0-.55-.06-.79-.06h-3.3a7.07 7.07 0 00-.42.81l-3.5 8.79a1.57 1.57 0 01-.64 1c-.7-1.82-1.38-3.54-2.05-5.27s-1.28-3.58-2.07-5.28h-4.08c-.21.59.13 1 .31 1.41 1.34 3.22 2.72 6.43 4.08 9.64.56 1.32 1.12 2.64 1.66 4a1.07 1.07 0 001.09.77h2a1 1 0 001-.67c.22-.48.47-1 .68-1.43.69-1.52 1.37-3.05 2.07-4.57 1.24-2.74 2.5-5.48 3.74-8.22a5.28 5.28 0 00.22-.92zm-195.11 12.1h-4.17a2.57 2.57 0 01-2.66-1.8 7.12 7.12 0 010-5.18 2.51 2.51 0 012.57-1.7h4.46c.38 0 .75 0 1.1-.08a6.36 6.36 0 00-.08-3.43h-6.61a5.76 5.76 0 00-5.81 4.24 14.19 14.19 0 00-.33 5.69 7.37 7.37 0 00.84 2.72 5.43 5.43 0 003.62 2.85 10.57 10.57 0 002.7.33h4.87a6.13 6.13 0 00.87-.13 12.29 12.29 0 000-3.48zM470.53 106a5.13 5.13 0 00-4.76 3.59 9.81 9.81 0 00-.57 3.08c-.08 2.68 0 5.37 0 8a6.53 6.53 0 00.12.84 10.73 10.73 0 003.92 0v-5.25a4 4 0 01.17-.84h3.95a23.13 23.13 0 003.89-.12 8.66 8.66 0 000-3.21 21.1 21.1 0 00-2.62-.07h-2.73a16.16 16.16 0 01-2.59-.08 2.37 2.37 0 01.85-1.83 2.68 2.68 0 011.82-.73h4.61a6.94 6.94 0 00.93-.13 6.61 6.61 0 00-.14-3.35c-2.26.04-4.56-.06-6.85.1zm-59.21-.07a.25.25 0 00-.13 0 2.27 2.27 0 00-.2.21 9.47 9.47 0 00.12 3.16c.42 0 .79.07 1.17.07h2.87a4 4 0 01.86.19v10.68a1.8 1.8 0 00.26 1.33c.55 0 1.16.08 1.77.07s1.34.18 2-.29v-10.59c0-.42.05-.84.08-1.31a19.11 19.11 0 012.35-.1 7.08 7.08 0 002.42-.17 13.6 13.6 0 000-3.32zm243.68.12c-.12-.06-.17-.1-.21-.1h-13.36a.33.33 0 00-.14 0s-.06.07-.1.11a6.55 6.55 0 00.09 3.26c1.52.19 3.1-.11 4.73.19.06 1.39 0 2.72 0 4.06v3.87a35.12 35.12 0 00.07 4 7.84 7.84 0 003.88 0 4.69 4.69 0 00.1-.67v-8.47a9.65 9.65 0 01.18-2.91h2.32a10 10 0 002.43-.12 8.44 8.44 0 00.01-3.22zm130.38-.13h-2.09c-1.17 1.81-1.95 3.73-3.21 5.49l-3.08-5.5h-2.05a10 10 0 00-2.22.1c.24.44.41.77.6 1.08 1.4 2.28 2.8 4.57 4.23 6.83a3 3 0 01.5 1.76v5.76a3.66 3.66 0 001 .23c1-.12 2 .22 3-.16 0-.43.07-.81.07-1.18v-4.31a3.67 3.67 0 01.6-2.15c1.44-2.26 2.82-4.56 4.22-6.85.18-.31.32-.64.53-1a11 11 0 00-2.1-.1zm-347.23 0h-2.1c-.55 1-1 1.85-1.55 2.71a13.17 13.17 0 01-1.67 2.7l-3.07-5.45h-3.94a.2.2 0 00-.13.06s-.05.07-.13.2c.11.19.23.44.37.67 1.48 2.41 2.95 4.82 4.46 7.2a3.27 3.27 0 01.53 1.89v4.31c0 .42 0 .84.06 1.23a7.17 7.17 0 004-.06c0-.38.06-.8.06-1.23v-4.44a3.07 3.07 0 01.49-1.76c1.52-2.43 3-4.88 4.52-7.33a3.94 3.94 0 00.26-.75zm301.01 12.18h-2.87a2.27 2.27 0 01-2.38-2.18 8.51 8.51 0 010-1v-7.89c0-.36.12-.77-.31-1.1h-1.8a4.94 4.94 0 00-1.89.16c0 .51-.06 1-.06 1.44v7.89a11.67 11.67 0 00.24 2.12 4.63 4.63 0 004 4 28.77 28.77 0 006.56.06c.07 0 .13-.12.19-.19v-3.31zm-396.03-12.19a24.83 24.83 0 00-3.7.12 1.74 1.74 0 00-.14.34 5.74 5.74 0 000 .71v14.19a.33.33 0 000 .13.5.5 0 00.1.11 11.1 11.1 0 003.76 0c0-.3.08-.54.08-.77v-14.19a3.58 3.58 0 00-.1-.64zm175.59.01a7.93 7.93 0 00-1.82.07 3.69 3.69 0 00-.12.48v14.64a1.72 1.72 0 00.1.39 8.68 8.68 0 003.86 0 2 2 0 00.08-.36v-14.49a3 3 0 00-.2-.72c-.62-.02-1.28-.03-1.9-.01zm-108.9-.01h-1.94a5.23 5.23 0 00-1.9.15c-.08 1.32 0 2.6-.05 3.88s0 2.58 0 3.87v3.88a27.91 27.91 0 00.09 3.78 9.7 9.7 0 003.9.08 5.87 5.87 0 00.07-.62v-14.21a4.7 4.7 0 00-.17-.81zm221.76 2.2a5.25 5.25 0 00-4.33-2.18c-2.83-.05-5.66 0-8.48 0a1.38 1.38 0 00-.42.11 1.59 1.59 0 00-.12.41v15.07a6.5 6.5 0 001.1.2c2.39 0 4.78.05 7.17 0a9.12 9.12 0 002.53-.47 4.83 4.83 0 002.9-2.42 10.7 10.7 0 001-3.12 12.66 12.66 0 000-4.12 7.55 7.55 0 00-1.35-3.48zm-3.26 7.89a2.69 2.69 0 01-2.89 2.07h-2.58a1.49 1.49 0 01-.37-.13 71.33 71.33 0 010-8.4 7 7 0 01.8-.11h2.44a2.51 2.51 0 012.44 1.66 3.38 3.38 0 01.25.82 8.41 8.41 0 01-.09 4.09zm-242.24-.62a3.9 3.9 0 001.7-2.07 7.69 7.69 0 000-4.79 3.25 3.25 0 00-2.21-2.28 6.64 6.64 0 00-1.82-.33h-9.1a6 6 0 00-.09.75v14.08a6.2 6.2 0 00.11.77 6.22 6.22 0 003.77-.1c.27-1.71-.13-3.49.23-5.26h2.23c.32.56.63 1.1.92 1.64.6 1.09 1.2 2.18 1.79 3.27a1 1 0 00.87.65h3.3a1.81 1.81 0 00.59-.22l-3.07-5.61c.3-.22.55-.35.78-.5zm-3.26-2.74a5.48 5.48 0 01-1.4.17 9 9 0 01-2.84-.15v-3.1a7.85 7.85 0 01.86-.13h3a1.38 1.38 0 011.52 1.36 1.52 1.52 0 01-1.14 1.85zm76.77-6.5a10.73 10.73 0 00-7.18.12 5.6 5.6 0 00-3.73 4.22c-.24 1.06-.33 2.16-.46 3.07a26.25 26.25 0 00.43 3.44 6.07 6.07 0 004.41 4.48 11 11 0 005.95 0 6.16 6.16 0 004.81-5.41 14.3 14.3 0 000-4.84 6.06 6.06 0 00-4.23-5.08zm.1 9.42a3 3 0 01-3 2.82h-1.15a2.79 2.79 0 01-2.75-2.1 10 10 0 010-5 2.78 2.78 0 012.42-2.16 5 5 0 012 0 2.9 2.9 0 012.54 2.55c.12.75.12 1.52.16 2.05-.14.79-.15 1.28-.22 1.84zm291.87-9.48a13.71 13.71 0 00-3.26-.53c-.9.13-1.8.21-2.68.4a5.84 5.84 0 00-4.74 4.28 12.93 12.93 0 00-.22 6.24 6.18 6.18 0 005 5.12 11.35 11.35 0 005.12 0 6.4 6.4 0 005.24-5.56 15.12 15.12 0 000-4.7 6.14 6.14 0 00-4.46-5.25zm.17 9.93a2.84 2.84 0 01-3 2.37h-1a3.06 3.06 0 01-3-2.87v-3.43a3.09 3.09 0 012.63-2.94 4.87 4.87 0 012.52.16 2.15 2.15 0 011.34 1 4 4 0 01.47 1 10.23 10.23 0 01.04 4.7zm-27.48-9.87a10.92 10.92 0 00-6.38-.13 5.92 5.92 0 00-4.63 4.93 26.94 26.94 0 00-.26 2.85h.08v1.58a6.33 6.33 0 005 6.2 11.4 11.4 0 005.13.09 6.13 6.13 0 004.7-3.61 8.51 8.51 0 00.71-2.91 15 15 0 00-.24-4.27 6.08 6.08 0 00-4.11-4.73zm.06 9.76a2.88 2.88 0 01-2.91 2.48h-.57a8.19 8.19 0 01-.86 0 2.66 2.66 0 01-2.51-2 9.46 9.46 0 010-5.09 2.78 2.78 0 012.18-2.06 5.08 5.08 0 012.54 0 2.94 2.94 0 012.16 2.44 9.94 9.94 0 01-.03 4.23zm-529.51-5.74c-.52-1.23-1.06-2.46-1.57-3.69a.86.86 0 00-.86-.64c-1 0-1.89.09-2.89.14-2.16 5.13-4.32 10.23-6.51 15.42a3.29 3.29 0 00.86.3h2.43a1.1 1.1 0 001.19-.82c.31-.84.68-1.67 1.05-2.57h5.5c.21.51.39.94.57 1.39s.35.89.52 1.33a.94.94 0 001 .67h2.59a4.56 4.56 0 00.84-.22c-.1-.3-.16-.53-.25-.74zm-4.71 4.75a7 7 0 011.22-3.21 31.13 31.13 0 011.32 3.2 7.47 7.47 0 01-2.54.01zM592 105.93c-2.2 5.2-4.4 10.32-6.57 15.57a4 4 0 00.92.21 14.56 14.56 0 003.29-.13l.68-1.63.64-1.51a28.33 28.33 0 015.58 0c.36.85.75 1.72 1.09 2.61a.84.84 0 00.86.61h2.58a3.22 3.22 0 00.88-.28c-.73-2.24-6.05-14.63-6.65-15.49zm.45 8.86a14.61 14.61 0 011.24-3 4.07 4.07 0 01.8 1.54c.22.46.38 1 .57 1.44a3.23 3.23 0 01-2.61.02zm215.69-90.56h1.02v98.7h-1.02zm91.51 72.09h-7.21V92h-51.33v4.08h-7V25.85h65.58zm-7.21-10.69V32.18h-51.33v53.45zm-2.6-31h-46.08v-5h19.65v-2.75H847V34.82h39.52v12.06H870.3v2.76h19.54zM887.52 83h-41.4V57.37h41.4zm-6.89-4.84V62.29h-27.55v15.82zm-1.2-35.6v-3.33h-25.34v3.28zm-3.12 33h-18.94V64.81h18.94zm-6.17-3.92v-2.9h-6.65v2.88zm114.23-3.46h-71.43v-5.33h32v-3.68h-25.67v-5.09h25.66v-3.52h-24.42v-4.85h24.42v-3.84h-32.15v-5.16h32.15v-3.45h-24.42V28.1h24.42v-3.65h7.21v3.65h25.35v8.61h6.8v5.16h-6.8v8.69h-25.35v3.52h26.07v5.09h-26.07v3.68h32.23zm-7.44 28h-7.41v-2H928v2h-7.45V71.62h56.42zm-7.41-15.89v-3.67H928v3.69zm0 8.69v-3.75H928V89zm.76-52.29v-3.43h-18.14v3.45zm0 9v-3.82h-18.14v3.84zm48.61-1.38h-7.21v12.74q2-.88 5.72-2.73l-.08 7.61q-3.8 2.09-5.64 2.88v23.07q0 8.28-8.61 8.28L996.9 96l-1.64-7c1.36.1 2.71.16 4 .16 2.37 0 3.84-.2 4.4-.58a2.39 2.39 0 00.84-2.11V67.78c-3.17 1.3-6 2.4-8.61 3.28l-1.64-6.89q3.88-1.28 10.25-4V44.31h-9.69v-6.72h9.69v-13h7.13v13h7.21zm47.64 48.13h-34.67V96h-7.21V52.84c-1.68 2.24-3 3.89-3.88 4.93l-4.41-6.25a81.44 81.44 0 0014.34-27.39l6.72 1.72q-1.83 5.66-4.76 12.34h12.65a81.69 81.69 0 00-4.44-11.49l6.72-2.49a67.49 67.49 0 014.77 14h12.29v6.6h-13.37v9.13h12.29v6.49h-12.29v9.33h12v6.48h-12v9.41h15.25zm-22.3-38.52v-9.13h-12.37v9.13zm0 15.82v-9.33h-12.37v9.33zm0 15.89v-9.41h-12.37v9.41zm104.38-38.75h-22.7v3.6h18.3v14.41H1103l-.48 3.21h45.2v5.24H1102l-.56 3.52h44.92a65.42 65.42 0 01-1.22 12.6c-.74 3.35-1.88 5.38-3.44 6.08s-4.63.93-9.19.66l-1-3.68-4.17 1.08a34.2 34.2 0 00-3.88-8.61l6.08-2a38.53 38.53 0 013.21 6.57c1.33.1 2.36.16 3.08.16 1.33 0 2.13-.27 2.38-.8s.57-2.85.94-6.93h-45.44l2.44-17.06h-7.45q0 21.1-5.88 31.59l-5.69-4.36q4.61-8.3 4.61-21.14V41.11h27.7a13.13 13.13 0 00-1.8-3.68l8.05-1.33a38.34 38.34 0 012.36 5h30.59zM1111 34.62h-9.57v4.21h-7.09v-4.21h-17.14v-5.8h17.14v-4.17h7.09v4.17h9.57zM1099.57 86a41.13 41.13 0 01-6.57 10.64l-6-3.64a32.61 32.61 0 006.49-9.93zm.92-35.47v-3.6h-11.82v3.6zm0 9.09V55.8h-11.82v3.77zM1110.58 95l-6.65 1a57 57 0 00-2-10.65l6.56-1.16a48.57 48.57 0 012.09 10.81zm8.52-44.52v-3.6h-11.73v3.6zm0 9.09V55.8h-11.73v3.77zm2.81 33.79l-6.65 1.12a34 34 0 00-2.4-9.57l6.16-1.32a40.11 40.11 0 012.89 9.77zm26.7-58.74h-17v4.21h-7.13v-4.21H1115v-5.8h9.45v-4.17h7.13v4.17h17zm-11.13 25V55.8h-11.57v3.77zm48.21 20.05a85.85 85.85 0 01-22.54 12.77l-4.37-5.89A80.54 80.54 0 001180.2 75zm43.76-8l-6.12 4.36q-2.85-4-4.53-6-11.54 1.44-20.18 2v16.81a6.29 6.29 0 01-2 5.26q-2.15 2-13 1.94l-2.89-7.28q4.46.31 8.37.32a1.91 1.91 0 002.2-2.13V72.78q-16.82.84-25 1l-1.72-6.28q10.36-2.89 24.18-10.17-14.37.72-20.42.72l-1.16-5.33a81.18 81.18 0 0030.11-17.06l6.73 3.85a71.79 71.79 0 01-19.94 12.21l6.48-.32 9.89-.76c.46-.05 2.29-1.22 5.49-3.48l5.68-4.21 6.41 4.45q-19.21 13.6-36.18 19.53 14.33-.6 31.71-2.76-2.08-2.2-4.85-4.68l6.49-3.69a103.62 103.62 0 0114.25 15.9zm-25.14-43.88q-12.33 10-34.6 16l-4.2-6.24q19.77-4.25 32.63-13.7zm26.9 59.61l-4.92 5.6a105.75 105.75 0 00-21.58-13.53l5.08-5.09a122.58 122.58 0 0121.42 13.05zm19.9-10.46q-1.56 12.23-5.24 19.7l-6.17-2.8q3.65-7 5.37-18zm19.94-5.4l-6.4 2.2a43.1 43.1 0 00-.88-4.24 159.7 159.7 0 01-21.67 4.84l-1.24-5.6Q1248 63 1255.64 52q-6.53 1-12.66 1.44l-.88-4.8A78.27 78.27 0 001256.76 24l6.81 2.41a88.45 88.45 0 01-11.86 20.22c2.81-.25 5.42-.57 7.85-1a45.33 45.33 0 003.92-7.2l6.33 3.28q-8.52 15.38-17.3 24.5a67.2 67.2 0 009.45-2.56c-.56-1.57-1-2.75-1.32-3.52l5.65-2.44a58.67 58.67 0 014.76 13.85zm-9.21 21.74l-6.2 1.4a71.36 71.36 0 00-2-17.66l5.64-1.48a95.51 95.51 0 012.56 17.74zm9.53-7l-5.48 2.21a55.44 55.44 0 00-3.21-11.58l5.41-2a41.66 41.66 0 013.28 11.4zm41.84-9.53q-.75 12.9-1.48 14.16a14.16 14.16 0 01-2.46 2.94q-1.74 1.68-8.43 1.68c-3.74 0-6.19-.56-7.37-1.68s-1.76-3.38-1.76-6.77V59.49c-2.69.42-4.78.73-6.24.92a111.19 111.19 0 01-.84 14.93 32.56 32.56 0 01-4.07 11.71 34.62 34.62 0 01-8.63 10l-5.24-5a27.6 27.6 0 006.58-6.73 26.93 26.93 0 004.27-9.33q1.24-5.08 1-14.77l-7.21.8-1.32-5.41a86.71 86.71 0 0011.41-17.93h-12.13v-6.74h14.94c.66-1.55 1.56-4.07 2.68-7.57l7.49 1.16c-.94 2.65-1.74 4.78-2.41 6.41h20.34v6.73h-23.3a98.58 98.58 0 01-9.41 16 146.16 146.16 0 0019.26-2.36 39.93 39.93 0 00-4.24-5.4l5.8-3.81q8.49 10.14 12 17.06l-6 4q-2.16-4-3.81-6.48l-4.16.72v28.79c0 1.34 1.21 2 3.64 2 1.95 0 3.14-.72 3.57-2.17s.76-5.61 1-12.53zM835.6 122.63v-19.32h8.22a14 14 0 014.5.52 4.45 4.45 0 012.25 1.85 5.59 5.59 0 01.84 3 5.17 5.17 0 01-1.28 3.59 6.13 6.13 0 01-3.82 1.78 9.42 9.42 0 012.09 1.63 21.33 21.33 0 012.22 3.13l2.36 3.77h-4.67l-2.82-4.2a26.84 26.84 0 00-2.06-2.84 3 3 0 00-1.17-.81 6.63 6.63 0 00-2-.21h-.8v8.06zm3.9-11.15h2.89a14.82 14.82 0 003.51-.24 2.13 2.13 0 001.09-.81 2.48 2.48 0 00.4-1.45 2.32 2.32 0 00-.52-1.58 2.43 2.43 0 00-1.47-.76q-.48-.06-2.85-.06h-3zm23.67 6.7l3.69.62a6 6 0 01-2.25 3.09 6.56 6.56 0 01-3.84 1.06 6.25 6.25 0 01-5.4-2.39 8 8 0 01-1.39-4.82 7.73 7.73 0 011.82-5.45 6 6 0 014.6-2 6.2 6.2 0 014.93 2.06c1.21 1.38 1.78 3.48 1.73 6.32h-9.28a3.75 3.75 0 00.89 2.57 2.81 2.81 0 002.14.91 2.28 2.28 0 001.46-.47 2.92 2.92 0 00.9-1.5zm.21-3.75a3.56 3.56 0 00-.83-2.44 2.55 2.55 0 00-1.92-.84 2.61 2.61 0 00-2 .88 3.41 3.41 0 00-.78 2.4zm5.39 4.21l3.72-.57a2.73 2.73 0 001 1.64 3.22 3.22 0 002 .56 3.72 3.72 0 002.17-.52 1.19 1.19 0 00.48-1 1 1 0 00-.26-.7 2.94 2.94 0 00-1.24-.49 20.2 20.2 0 01-5.68-1.8 3.61 3.61 0 01-1.66-3.16 3.88 3.88 0 011.43-3 6.71 6.71 0 014.46-1.24 7.8 7.8 0 014.27.93 4.87 4.87 0 011.93 2.77l-3.5.65a2.15 2.15 0 00-.85-1.26 3.12 3.12 0 00-1.79-.43 4 4 0 00-2.09.41.87.87 0 00-.42.75.8.8 0 00.37.67 13.21 13.21 0 003.46 1 10.32 10.32 0 014.13 1.65 3.44 3.44 0 011.16 2.76 4.22 4.22 0 01-1.61 3.31 7.13 7.13 0 01-4.76 1.38 7.85 7.85 0 01-4.53-1.16 5.36 5.36 0 01-2.19-3.15zm15.47-3.2a7.53 7.53 0 01.91-3.58 6.16 6.16 0 012.57-2.63 7.63 7.63 0 013.73-.91 7 7 0 015.2 2.06 7.11 7.11 0 012 5.21 7.24 7.24 0 01-2.05 5.27 7 7 0 01-5.17 2.09 8.15 8.15 0 01-3.67-.87 5.94 5.94 0 01-2.65-2.55 8.47 8.47 0 01-.87-4.09zm3.79.19a4.62 4.62 0 001 3.19 3.14 3.14 0 002.44 1.11 3.1 3.1 0 002.43-1.11 5.63 5.63 0 000-6.38 3.09 3.09 0 00-2.43-1.1 3.13 3.13 0 00-2.44 1.1 4.63 4.63 0 00-1.03 3.19zm22.77 7v-2.09a5.44 5.44 0 01-2 1.76 5.65 5.65 0 01-2.63.65 5.18 5.18 0 01-2.53-.62 3.6 3.6 0 01-1.62-1.74 7.68 7.68 0 01-.5-3.1v-8.86h3.7v6.44a17.42 17.42 0 00.21 3.62 1.94 1.94 0 00.74 1 2.29 2.29 0 001.37.39 2.9 2.9 0 001.7-.52 2.66 2.66 0 001-1.29 14.75 14.75 0 00.28-3.78v-5.91h3.7v14zm10.83 0h-3.71v-14h3.44v2a6 6 0 011.59-1.86 3 3 0 011.6-.44 4.65 4.65 0 012.44.7l-1.15 3.23a3.19 3.19 0 00-1.74-.61 2 2 0 00-1.31.43 2.86 2.86 0 00-.85 1.55 21.69 21.69 0 00-.31 4.69zm19.17-9.86l-3.66.66a2.66 2.66 0 00-.83-1.65 2.54 2.54 0 00-1.7-.55 2.77 2.77 0 00-2.21 1 4.87 4.87 0 00-.82 3.19 5.64 5.64 0 00.84 3.52 2.73 2.73 0 002.24 1 2.5 2.5 0 001.73-.6 3.58 3.58 0 001-2.06l3.64.62a6.41 6.41 0 01-2.18 3.78 6.74 6.74 0 01-4.31 1.28 6.42 6.42 0 01-4.9-1.94 8.84 8.84 0 010-10.76 6.51 6.51 0 015-1.93 6.75 6.75 0 014.07 1.1 6.17 6.17 0 012.09 3.34zm10.91 5.41l3.69.62a6 6 0 01-2.25 3.09 6.56 6.56 0 01-3.84 1.06 6.25 6.25 0 01-5.4-2.39 8 8 0 01-1.39-4.82 7.73 7.73 0 011.82-5.45 6 6 0 014.6-2 6.18 6.18 0 014.93 2.06c1.21 1.38 1.78 3.48 1.73 6.32h-9.28a3.71 3.71 0 00.9 2.57 2.79 2.79 0 002.13.91 2.33 2.33 0 001.47-.47 3 3 0 00.89-1.5zm.21-3.75a3.52 3.52 0 00-.83-2.44 2.55 2.55 0 00-1.92-.84 2.61 2.61 0 00-2 .88 3.45 3.45 0 00-.77 2.4zm5.39 4.21l3.72-.57a2.73 2.73 0 001 1.64 3.22 3.22 0 002 .56 3.72 3.72 0 002.17-.52 1.19 1.19 0 00.48-1 1 1 0 00-.26-.7 2.88 2.88 0 00-1.24-.49 20.2 20.2 0 01-5.68-1.8 3.61 3.61 0 01-1.66-3.16 3.88 3.88 0 011.43-3 6.71 6.71 0 014.46-1.24 7.8 7.8 0 014.27.93 4.82 4.82 0 011.93 2.77l-3.5.65a2.15 2.15 0 00-.85-1.26 3.1 3.1 0 00-1.78-.43 4 4 0 00-2.1.41.87.87 0 00-.42.75.8.8 0 00.37.67 13.36 13.36 0 003.46 1 10.32 10.32 0 014.13 1.65 3.44 3.44 0 011.16 2.76 4.22 4.22 0 01-1.61 3.31A7.13 7.13 0 01964 123a7.87 7.87 0 01-4.53-1.16 5.36 5.36 0 01-2.16-3.2zm23.87 3.99v-19.32h8.21a14 14 0 014.5.52 4.37 4.37 0 012.25 1.85 5.59 5.59 0 01.84 3 5.13 5.13 0 01-1.28 3.59 6.11 6.11 0 01-3.82 1.78 9.19 9.19 0 012.09 1.63 21.33 21.33 0 012.22 3.13l2.36 3.77h-4.66l-2.83-4.2a27.31 27.31 0 00-2-2.84 3.05 3.05 0 00-1.18-.81 6.59 6.59 0 00-2-.21h-.79v8.06zm3.9-11.15H988a14.65 14.65 0 003.5-.24 2.16 2.16 0 001.1-.81 2.55 2.55 0 00.4-1.43 2.32 2.32 0 00-.52-1.58 2.43 2.43 0 00-1.47-.76c-.32 0-1.26-.06-2.85-.06h-3zm23.66 6.7l3.69.62a6.06 6.06 0 01-2.24 3.09 6.62 6.62 0 01-3.85 1.06 6.27 6.27 0 01-5.4-2.39 8 8 0 01-1.39-4.82 7.73 7.73 0 011.82-5.45 6 6 0 014.6-2 6.18 6.18 0 014.93 2.06c1.21 1.38 1.78 3.48 1.73 6.32h-9.28a3.75 3.75 0 00.9 2.57 2.79 2.79 0 002.13.91 2.33 2.33 0 001.47-.47 3 3 0 00.89-1.5zm.21-3.75a3.52 3.52 0 00-.83-2.44 2.55 2.55 0 00-1.92-.84 2.61 2.61 0 00-2 .88 3.45 3.45 0 00-.77 2.4zm18.91-1.66l-3.65.66a2.67 2.67 0 00-.84-1.65 2.53 2.53 0 00-1.69-.55 2.76 2.76 0 00-2.21 1 4.86 4.86 0 00-.83 3.19 5.64 5.64 0 00.84 3.52 2.74 2.74 0 002.25 1 2.51 2.51 0 001.73-.6 3.64 3.64 0 00.94-2.06l3.64.62a6.46 6.46 0 01-2.17 3.78 6.74 6.74 0 01-4.31 1.28 6.42 6.42 0 01-4.9-1.94 8.8 8.8 0 010-10.76 6.49 6.49 0 015-1.93 6.73 6.73 0 014.07 1.1 6.07 6.07 0 012.13 3.34zm1.95 2.67a7.53 7.53 0 01.91-3.58 6.24 6.24 0 012.58-2.63 7.59 7.59 0 013.72-.91 7 7 0 015.21 2.06 7.75 7.75 0 010 10.48 7 7 0 01-5.16 2.09 8.09 8.09 0 01-3.67-.87 6 6 0 01-2.66-2.55 8.47 8.47 0 01-.93-4.09zm3.8.19a4.62 4.62 0 001 3.19 3.23 3.23 0 004.87 0 5.68 5.68 0 000-6.38 3.25 3.25 0 00-4.87 0 4.63 4.63 0 00-1 3.19zm13.27-7h3.42v1.91a5.49 5.49 0 014.36-2.22 4.67 4.67 0 012.33.55 4.37 4.37 0 011.63 1.67 6.52 6.52 0 012-1.67 4.86 4.86 0 012.28-.55 5.14 5.14 0 012.61.62 3.84 3.84 0 011.59 1.84 7.86 7.86 0 01.39 2.9v8.95h-3.71v-8a6.05 6.05 0 00-.38-2.69 1.74 1.74 0 00-1.58-.79 2.53 2.53 0 00-1.47.48 2.69 2.69 0 00-1 1.39 10.07 10.07 0 00-.3 2.89v6.72h-3.7V115a10.77 10.77 0 00-.2-2.64 1.71 1.71 0 00-.61-.88 2 2 0 00-1.13-.29 2.66 2.66 0 00-1.54.46 2.55 2.55 0 00-1 1.33 10.28 10.28 0 00-.29 2.89v6.8h-3.71zm24.01 0h3.42v1.91a5.49 5.49 0 014.36-2.22 4.67 4.67 0 012.33.55 4.27 4.27 0 011.62 1.67 6.64 6.64 0 012-1.67 4.93 4.93 0 012.29-.55 5.2 5.2 0 012.61.62 3.84 3.84 0 011.59 1.84 7.9 7.9 0 01.38 2.9v8.95h-3.7v-8a6.05 6.05 0 00-.38-2.69 1.76 1.76 0 00-1.58-.79 2.53 2.53 0 00-1.47.48 2.64 2.64 0 00-1 1.39 10.07 10.07 0 00-.3 2.89v6.72h-3.71V115a11 11 0 00-.19-2.64 1.72 1.72 0 00-.62-.88 1.93 1.93 0 00-1.12-.29 2.69 2.69 0 00-1.55.46 2.58 2.58 0 00-1 1.33 9.83 9.83 0 00-.3 2.89v6.8h-3.7zm32.39 9.55l3.69.62a6.06 6.06 0 01-2.24 3.09 6.62 6.62 0 01-3.85 1.06 6.27 6.27 0 01-5.4-2.39 8 8 0 01-1.39-4.82 7.73 7.73 0 011.82-5.45 6 6 0 014.6-2 6.18 6.18 0 014.93 2.06c1.21 1.38 1.79 3.48 1.73 6.32h-9.28a3.8 3.8 0 00.9 2.57 2.79 2.79 0 002.13.91 2.33 2.33 0 001.47-.47 3 3 0 00.89-1.5zm.21-3.75a3.52 3.52 0 00-.83-2.44 2.53 2.53 0 00-1.92-.84 2.61 2.61 0 00-2 .88 3.45 3.45 0 00-.77 2.4zm19.44 8.2h-3.71v-7.14a11 11 0 00-.24-2.94 2 2 0 00-.77-1 2.15 2.15 0 00-1.28-.37 3 3 0 00-1.73.53 2.66 2.66 0 00-1 1.4 12 12 0 00-.28 3.21v6.34h-3.71v-14h3.45v2.06a5.6 5.6 0 014.61-2.37 5.46 5.46 0 012.24.44 3.71 3.71 0 011.54 1.13 4 4 0 01.72 1.55 11.26 11.26 0 01.21 2.49zm16.59 0h-3.44v-2a5.49 5.49 0 01-2 1.78 5.21 5.21 0 01-2.35.59 5.36 5.36 0 01-4.14-1.94 8 8 0 01-1.72-5.43 7.79 7.79 0 011.68-5.41 5.42 5.42 0 014.23-1.85 5.24 5.24 0 014.06 2v-7h3.7zm-9.88-7.3a6.31 6.31 0 00.62 3.24 2.78 2.78 0 002.5 1.45 2.75 2.75 0 002.18-1.08 5.08 5.08 0 00.89-3.25 5.52 5.52 0 00-.87-3.48 2.74 2.74 0 00-2.23-1.06 2.77 2.77 0 00-2.2 1 4.7 4.7 0 00-.89 3.18zm16.3-2.43l-3.36-.6a5.25 5.25 0 012-3 7.18 7.18 0 014.12-1 8.9 8.9 0 013.69.58 3.69 3.69 0 011.71 1.49 7.69 7.69 0 01.49 3.32v4.32a14.79 14.79 0 00.18 2.72 8 8 0 00.66 1.88h-3.66c-.1-.24-.22-.61-.36-1.09-.06-.22-.1-.37-.13-.44a6.63 6.63 0 01-2 1.39 5.78 5.78 0 01-2.31.46 4.76 4.76 0 01-3.4-1.17 3.92 3.92 0 01-1.25-3 4 4 0 01.57-2.12 3.72 3.72 0 011.59-1.42 12.1 12.1 0 012.94-.86 20.84 20.84 0 003.6-.91v-.37a1.88 1.88 0 00-.53-1.52 3.1 3.1 0 00-2-.46 2.64 2.64 0 00-1.54.39 2.7 2.7 0 00-1.01 1.41zm5 3a22.63 22.63 0 01-2.25.57 6.92 6.92 0 00-2 .64 1.57 1.57 0 00-.73 1.31 1.83 1.83 0 00.58 1.34 2 2 0 001.48.57 3.18 3.18 0 001.91-.66 2.29 2.29 0 00.89-1.23 7.64 7.64 0 00.14-1.8zm13.67-7.27v3h-2.53v5.64a16 16 0 00.07 2 .83.83 0 00.33.46 1 1 0 00.63.19 4.76 4.76 0 001.49-.36l.32 2.88a7.39 7.39 0 01-2.93.55 4.56 4.56 0 01-1.81-.34 2.61 2.61 0 01-1.18-.87 3.42 3.42 0 01-.52-1.44 17.74 17.74 0 01-.12-2.61v-6.1h-1.7v-3h1.7v-2.78l3.72-2.16v4.94zm2.57-1.9v-3.42h3.71v3.42zm0 15.9v-14h3.71v14zm6.65-7.19a7.53 7.53 0 01.91-3.58 6.12 6.12 0 012.58-2.63 7.59 7.59 0 013.72-.91 7 7 0 015.21 2.06 7.14 7.14 0 012 5.21 7.24 7.24 0 01-2 5.27 7 7 0 01-5.16 2.09 8.09 8.09 0 01-3.67-.87 5.92 5.92 0 01-2.66-2.55 8.47 8.47 0 01-.93-4.09zm3.8.19a4.62 4.62 0 001 3.19 3.15 3.15 0 002.44 1.11 3.1 3.1 0 002.43-1.11 5.63 5.63 0 000-6.38 3.09 3.09 0 00-2.43-1.1 3.14 3.14 0 00-2.44 1.1 4.63 4.63 0 00-1 3.19zm26.28 7h-3.7v-7.14a11 11 0 00-.24-2.94 2.06 2.06 0 00-.77-1 2.2 2.2 0 00-1.29-.37 3 3 0 00-1.72.53 2.66 2.66 0 00-1 1.4 12 12 0 00-.28 3.21v6.34h-3.71v-14h3.44v2.06a5.61 5.61 0 014.62-2.37 5.5 5.5 0 012.24.44 3.67 3.67 0 011.53 1.13 4 4 0 01.73 1.55 12 12 0 01.2 2.49zm10.3-6.28l3.8-.37a4.55 4.55 0 001.39 2.8 4.2 4.2 0 002.83.9 4.37 4.37 0 002.84-.8 2.38 2.38 0 001-1.86 1.75 1.75 0 00-.4-1.17 3.29 3.29 0 00-1.4-.84c-.46-.15-1.5-.44-3.13-.84a10.67 10.67 0 01-4.4-1.91 5.09 5.09 0 01-1-6.65 5.27 5.27 0 012.42-2 9.64 9.64 0 013.8-.67 8.18 8.18 0 015.48 1.59 5.67 5.67 0 011.93 4.26l-3.9.17a3.32 3.32 0 00-1.08-2.14 3.9 3.9 0 00-2.47-.65 4.42 4.42 0 00-2.66.7 1.37 1.37 0 00-.62 1.2 1.49 1.49 0 00.58 1.17 10.37 10.37 0 003.59 1.29A19.11 19.11 0 011227 112a5.41 5.41 0 012.13 2 6.1 6.1 0 01-.15 6.19 5.51 5.51 0 01-2.61 2.15 11 11 0 01-4.21.71 8.35 8.35 0 01-5.62-1.7 7.34 7.34 0 01-2.33-5zm17.22-7.72h3.94l3.35 9.94 3.27-9.94h3.83l-4.94 13.48-.88 2.44a10.74 10.74 0 01-.93 1.87 4.26 4.26 0 01-1 1 4.58 4.58 0 01-1.41.62 7.3 7.3 0 01-1.89.23 9.86 9.86 0 01-2.1-.23l-.33-2.9a7.8 7.8 0 001.57.17 2.31 2.31 0 001.91-.76 5.06 5.06 0 001-1.93zm15.46 10.01l3.72-.57a2.73 2.73 0 001 1.64 3.22 3.22 0 002 .56 3.66 3.66 0 002.16-.52 1.18 1.18 0 00.49-1 1 1 0 00-.26-.7 2.94 2.94 0 00-1.24-.49 20.2 20.2 0 01-5.68-1.8 3.62 3.62 0 01-1.67-3.16 3.89 3.89 0 011.44-3 6.71 6.71 0 014.46-1.24 7.8 7.8 0 014.27.93 4.81 4.81 0 011.92 2.77l-3.49.65a2.15 2.15 0 00-.85-1.26 3.12 3.12 0 00-1.79-.43 4 4 0 00-2.09.41.87.87 0 00-.42.75.8.8 0 00.37.67 13.21 13.21 0 003.46 1 10.32 10.32 0 014.13 1.65 3.44 3.44 0 011.16 2.76 4.25 4.25 0 01-1.61 3.31 7.13 7.13 0 01-4.76 1.38 7.85 7.85 0 01-4.53-1.16 5.32 5.32 0 01-2.19-3.15zm22.74-10.01v3h-2.53v5.64a16 16 0 00.07 2 .83.83 0 00.33.46 1 1 0 00.63.19 4.76 4.76 0 001.49-.36l.32 2.88a7.39 7.39 0 01-2.93.55 4.56 4.56 0 01-1.81-.34 2.61 2.61 0 01-1.18-.87 3.42 3.42 0 01-.52-1.44 17.74 17.74 0 01-.12-2.61v-6.1h-1.7v-3h1.7v-2.78l3.72-2.16v4.94zm10.68 9.55l3.69.62a6 6 0 01-2.25 3.09 6.56 6.56 0 01-3.84 1.06 6.27 6.27 0 01-5.4-2.39 8 8 0 01-1.39-4.82 7.73 7.73 0 011.82-5.45 6 6 0 014.6-2 6.18 6.18 0 014.93 2.06c1.21 1.38 1.78 3.48 1.73 6.32h-9.28a3.75 3.75 0 00.9 2.57 2.79 2.79 0 002.13.91 2.28 2.28 0 001.46-.47 2.92 2.92 0 00.9-1.5zm.21-3.75a3.52 3.52 0 00-.83-2.44 2.55 2.55 0 00-1.92-.84 2.61 2.61 0 00-2 .88 3.5 3.5 0 00-.78 2.4zm6.42-5.8h3.42v1.91a5.49 5.49 0 014.36-2.22 4.71 4.71 0 012.34.55 4.41 4.41 0 011.62 1.67 6.52 6.52 0 012-1.67 4.86 4.86 0 012.28-.55 5.14 5.14 0 012.61.62 3.84 3.84 0 011.59 1.84 7.86 7.86 0 01.39 2.9v8.95h-3.71v-8a6.05 6.05 0 00-.38-2.69 1.74 1.74 0 00-1.58-.79 2.53 2.53 0 00-1.47.48 2.69 2.69 0 00-1 1.39 10.07 10.07 0 00-.3 2.89v6.72h-3.7V115a10.77 10.77 0 00-.2-2.64 1.71 1.71 0 00-.61-.88 2 2 0 00-1.13-.29 2.66 2.66 0 00-1.54.46 2.55 2.55 0 00-1 1.33 10.28 10.28 0 00-.29 2.89v6.8h-3.71z" fill="#075766"/></svg>